<?xml version="1.0" encoding="utf-8"?>
<!-- Generator: Adobe Illustrator 22.1.0, SVG Export Plug-In . SVG Version: 6.00 Build 0)  -->
<svg version="1.1" id="レイヤー_1" xmlns="http://www.w3.org/2000/svg" xmlns:xlink="http://www.w3.org/1999/xlink" x="0px"
	 y="0px" viewBox="0 0 150 150" style="enable-background:new 0 0 150 150;" xml:space="preserve">
<style type="text/css">
	.st0{fill:#2E8E98;}
	.st1{fill:#FFFFFF;}
</style>
<g>
	<path class="st0" d="M150,118.4c0,17.5-14.2,31.6-31.6,31.6H31.6C14.2,150,0,135.8,0,118.4V31.6C0,14.2,14.2,0,31.6,0h86.8
		C135.8,0,150,14.2,150,31.6V118.4z"/>
	<path class="st1" d="M106.3,93.2c-2.9,2.9-7.6,2.9-10.6,0l0,0L76.5,73.9L57.2,93.2h0c-2.9,2.9-7.6,2.9-10.6,0l0,0
		c-2.9-2.9-2.9-7.6,0-10.6l0,0l24.6-24.5c1.4-1.4,3.3-2.2,5.3-2.2l0,0c2,0,3.9,0.8,5.3,2.2l0,0l24.6,24.5c1.5,1.5,2.2,3.4,2.2,5.3
		l0,0C108.5,89.8,107.8,91.7,106.3,93.2L106.3,93.2z"/>
</g>
<g>
</g>
<g>
</g>
<g>
</g>
<g>
</g>
<g>
</g>
<g>
</g>
<g>
</g>
<g>
</g>
<g>
</g>
<g>
</g>
<g>
</g>
<g>
</g>
<g>
</g>
<g>
</g>
<g>
</g>
</svg>
