<?xml version="1.0" encoding="utf-8"?>
<!-- Generator: Adobe Illustrator 22.1.0, SVG Export Plug-In . SVG Version: 6.00 Build 0)  -->
<svg version="1.1" id="レイヤー_1" xmlns="http://www.w3.org/2000/svg" xmlns:xlink="http://www.w3.org/1999/xlink" x="0px"
	 y="0px" viewBox="0 0 24 16" style="enable-background:new 0 0 24 16;" xml:space="preserve">
<style type="text/css">
	.st0{fill:#FFFFFF;}
</style>
<path class="st0" d="M22,0H2C0.9,0,0,0.9,0,2v12c0,1.1,0.9,2,2,2h20c1.1,0,2-0.9,2-2V2C24,0.9,23.1,0,22,0z M7.2,10.4l-3.5,2
	c-0.1,0-0.2,0.1-0.2,0.1c-0.2,0-0.3-0.1-0.4-0.3C2.9,12,3,11.7,3.3,11.6l3.5-2C7,9.4,7.3,9.5,7.4,9.8C7.6,10,7.5,10.3,7.2,10.4z
	 M12,10.5c-0.1,0-0.2,0-0.3-0.1L3.2,4.9C3,4.8,2.9,4.5,3.1,4.2C3.2,4,3.5,3.9,3.8,4.1L12,9.4l8.2-5.3c0.2-0.2,0.5-0.1,0.7,0.1
	c0.1,0.2,0.1,0.5-0.1,0.7l-8.5,5.5C12.2,10.5,12.1,10.5,12,10.5z M20.9,12.2c-0.1,0.2-0.3,0.3-0.4,0.3c-0.1,0-0.2,0-0.2-0.1l-3.5-2
	c-0.2-0.1-0.3-0.4-0.2-0.7c0.1-0.2,0.4-0.3,0.7-0.2l3.5,2C21,11.7,21.1,12,20.9,12.2z"/>
<g>
</g>
<g>
</g>
<g>
</g>
<g>
</g>
<g>
</g>
<g>
</g>
<g>
</g>
<g>
</g>
<g>
</g>
<g>
</g>
<g>
</g>
<g>
</g>
<g>
</g>
<g>
</g>
<g>
</g>
</svg>
